<?xml version="1.0" encoding="UTF-8"?>
<svg xmlns="http://www.w3.org/2000/svg" xmlns:xlink="http://www.w3.org/1999/xlink" width="117px" height="73px" viewBox="0 0 117 73" version="1.1">
<g id="surface1">
<path style=" stroke:none;fill-rule:nonzero;fill:rgb(0%,0%,0%);fill-opacity:1;" d="M 31.976562 3.292969 C 11.757812 4 5.785156 6.960938 3.761719 17.167969 C 2.960938 21.214844 2.632812 40.875 3.199219 49.152344 C 3.996094 60.347656 5.597656 63.828125 11.003906 66.367188 C 17.492188 69.425781 26.003906 70.082031 58.78125 70.082031 C 101.433594 70.082031 108.347656 68.8125 112.203125 60.441406 C 114.320312 55.785156 115.023438 45.53125 114.320312 28.457031 C 113.847656 16.132812 113.378906 13.734375 110.980469 10.441406 C 107.40625 5.457031 101.714844 3.949219 84.175781 3.292969 C 71.621094 2.820312 45.613281 2.820312 31.976562 3.292969 Z M 97.578125 6.066406 C 103.269531 7.054688 106.605469 8.417969 108.628906 10.628906 C 111.875 14.15625 112.0625 15.378906 112.296875 34.664062 C 112.390625 44.074219 112.34375 51.738281 112.15625 51.738281 C 112.015625 51.738281 111.308594 51.363281 110.652344 50.941406 C 109.148438 49.953125 102.988281 49.8125 101.859375 50.75 C 101.292969 51.222656 100.964844 51.222656 100.070312 50.609375 C 98.613281 49.574219 96.496094 49.671875 94.617188 50.800781 C 93.203125 51.691406 92.96875 51.691406 92.03125 51.035156 C 90.710938 50.140625 88.457031 50.140625 87.46875 51.035156 C 86.761719 51.691406 86.527344 51.644531 85.445312 50.800781 C 83.847656 49.527344 80.929688 49.527344 79.285156 50.847656 L 78.0625 51.785156 L 76.839844 50.847656 C 74.960938 49.386719 72.796875 49.574219 70.726562 51.363281 C 69.269531 52.679688 69.082031 53.058594 69.269531 54.515625 C 69.410156 55.457031 69.644531 56.726562 69.832031 57.335938 C 70.585938 59.546875 69.035156 58.089844 67.953125 55.503906 C 67.386719 54.136719 66.351562 52.351562 65.742188 51.550781 C 64.707031 50.28125 64.472656 50.1875 63.390625 50.65625 C 62.496094 51.035156 61.699219 52.351562 60.238281 55.832031 C 58.078125 61.003906 57.984375 61.429688 59.113281 62.652344 C 60.050781 63.6875 61.933594 63.734375 63.0625 62.746094 C 63.8125 62.039062 64.003906 62.039062 64.988281 62.746094 C 66.210938 63.59375 67.859375 63.734375 69.128906 63.027344 C 69.738281 62.699219 70.398438 62.792969 71.433594 63.3125 C 72.984375 64.109375 75.242188 63.875 76.839844 62.792969 C 77.546875 62.277344 77.921875 62.324219 79.191406 63.074219 C 81.074219 64.203125 82.578125 64.203125 84.835938 63.027344 C 86.480469 62.230469 86.761719 62.183594 87.65625 62.792969 C 88.832031 63.640625 90.289062 63.6875 91.886719 62.980469 C 92.828125 62.558594 93.253906 62.558594 93.816406 63.027344 C 94.992188 64.015625 98.566406 63.828125 100.070312 62.699219 C 101.953125 61.289062 102.375 59.640625 101.386719 57.570312 C 100.445312 55.503906 100.589844 55.265625 102.28125 56.066406 C 103.503906 56.632812 103.550781 56.726562 103.269531 59.21875 C 102.9375 61.851562 103.691406 63.5 105.148438 63.5 C 106.558594 63.5 106.183594 64.488281 104.539062 65.144531 C 98.988281 67.496094 88.550781 68.15625 58.546875 68.15625 C 29.15625 68.203125 18.433594 67.496094 12.933594 65.191406 C 12.039062 64.816406 11.285156 64.25 11.285156 64.015625 C 11.285156 63.40625 12.839844 63.3125 18.246094 63.5 C 21.773438 63.59375 22.289062 63.5 23.324219 62.558594 L 24.453125 61.476562 L 26.757812 62.699219 C 29.296875 64.109375 31.742188 64.34375 33.199219 63.261719 C 34.046875 62.699219 34.46875 62.699219 35.691406 63.167969 C 36.960938 63.640625 37.433594 63.59375 38.65625 62.886719 C 39.878906 62.183594 40.207031 62.132812 40.867188 62.699219 C 41.429688 63.167969 43.214844 63.40625 47.449219 63.453125 C 52.855469 63.5 53.421875 63.40625 54.410156 62.464844 C 55.820312 61.148438 55.773438 59.6875 54.363281 58.371094 C 53.515625 57.570312 52.949219 57.382812 52.152344 57.621094 C 51.164062 57.949219 51.117188 57.902344 51.351562 54.890625 C 51.679688 51.222656 51.023438 50.328125 48.296875 50.328125 C 45.851562 50.328125 45.191406 51.503906 45.472656 55.171875 C 45.804688 58.558594 45.472656 58.417969 43.5 54.421875 C 41.054688 49.433594 39.078125 49.433594 36.820312 54.46875 L 35.691406 57.054688 L 34.703125 56.113281 C 34 55.363281 33.859375 54.9375 34.234375 54.28125 C 34.847656 53.105469 34.1875 51.503906 32.683594 50.515625 C 31.085938 49.480469 28.214844 49.859375 26.144531 51.410156 L 24.59375 52.632812 L 23.464844 51.457031 C 21.867188 49.859375 17.117188 49.625 15.519531 51.035156 C 14.625 51.832031 14.53125 52.257812 14.8125 54.65625 C 15.046875 56.773438 15 57.382812 14.484375 57.382812 C 14.15625 57.382812 13.355469 57.523438 12.742188 57.714844 C 11.617188 57.996094 11.617188 57.996094 11.898438 54.9375 C 12.132812 52.351562 12.039062 51.738281 11.332031 51.082031 C 10.25 50.09375 7.617188 50.09375 6.488281 51.128906 C 6.019531 51.550781 5.503906 51.738281 5.3125 51.550781 C 4.75 51.035156 4.5625 26.859375 5.078125 21.871094 C 6.300781 9.785156 9.453125 7.242188 25.394531 5.457031 C 26.289062 5.363281 42.183594 5.316406 60.664062 5.410156 C 84.882812 5.457031 95.226562 5.644531 97.578125 6.066406 Z M 84.789062 52.070312 C 85.210938 52.351562 85.210938 54.5625 84.742188 54.5625 C 84.550781 54.5625 84.035156 54.136719 83.566406 53.621094 C 83.140625 53.105469 82.484375 52.820312 82.105469 52.960938 C 80.695312 53.527344 81.023438 54.515625 83.28125 56.441406 C 85.867188 58.605469 86.246094 60.160156 84.550781 61.335938 C 82.390625 62.839844 78.675781 61.945312 79.285156 60.066406 C 79.753906 58.558594 79.898438 58.511719 80.695312 59.640625 C 81.542969 60.863281 83.140625 61.003906 83.566406 59.925781 C 83.753906 59.40625 83.140625 58.558594 81.636719 57.289062 C 79.144531 55.125 78.722656 53.246094 80.554688 51.976562 C 81.496094 51.316406 83.566406 51.363281 84.789062 52.070312 Z M 10.582031 52.164062 C 10.722656 52.398438 10.628906 52.726562 10.34375 52.914062 C 10.109375 53.058594 9.875 54.890625 9.875 56.960938 L 9.875 60.675781 L 11.332031 60.675781 C 12.367188 60.675781 12.839844 60.441406 13.027344 59.734375 C 13.402344 58.324219 14.109375 58.605469 14.109375 60.207031 L 14.109375 61.617188 L 10.25 61.617188 C 7.382812 61.570312 6.582031 61.476562 7.195312 61.101562 C 8.277344 60.441406 8.417969 53.292969 7.289062 52.867188 C 6.914062 52.679688 6.726562 52.398438 6.867188 52.164062 C 7.195312 51.597656 10.203125 51.597656 10.582031 52.164062 Z M 22.382812 52.445312 C 22.574219 52.820312 22.523438 53.480469 22.382812 53.902344 C 22.148438 54.5625 21.960938 54.515625 21.253906 53.621094 C 20.503906 52.726562 20.222656 52.632812 19.375 53.105469 C 18.339844 53.667969 18.105469 54.375 18.621094 55.691406 C 19 56.632812 19.703125 56.632812 20.785156 55.644531 C 21.585938 54.9375 21.632812 54.984375 21.632812 56.585938 C 21.632812 57.570312 21.445312 58.324219 21.160156 58.324219 C 20.925781 58.324219 20.691406 58.089844 20.691406 57.855469 C 20.691406 57.054688 19.328125 57.335938 18.855469 58.230469 C 18.527344 58.890625 18.574219 59.40625 19.09375 60.113281 C 19.984375 61.382812 20.457031 61.429688 21.492188 60.253906 C 22.382812 59.171875 23.042969 59.359375 23.042969 60.722656 C 23.042969 61.523438 22.714844 61.617188 19.28125 61.617188 L 15.519531 61.617188 L 16.269531 60.441406 C 17.210938 58.984375 17.023438 53.105469 16.035156 52.773438 C 14.765625 52.351562 16.695312 51.738281 19.421875 51.738281 C 21.398438 51.738281 22.195312 51.929688 22.382812 52.445312 Z M 32.824219 53.246094 C 33.011719 54.796875 32.777344 54.890625 31.507812 53.621094 C 30.332031 52.445312 30.050781 52.445312 28.496094 53.667969 C 26.097656 55.550781 27.226562 60.675781 30.050781 60.675781 C 31.695312 60.675781 32.308594 59.453125 31.273438 58.324219 C 30.191406 57.101562 30.425781 56.867188 32.355469 57.007812 C 33.625 57.101562 34.046875 57.335938 33.90625 57.855469 C 33.8125 58.230469 33.625 59.078125 33.480469 59.734375 C 33.152344 61.523438 32.496094 62.085938 30.707031 62.085938 C 27.558594 62.085938 25.441406 60.113281 25.394531 57.242188 C 25.394531 53.667969 27.320312 51.691406 30.566406 51.832031 C 32.496094 51.976562 32.683594 52.070312 32.824219 53.246094 Z M 42.277344 56.160156 C 43.074219 58.183594 44.0625 60.253906 44.488281 60.722656 C 45.238281 61.570312 45.238281 61.617188 43.40625 61.617188 C 41.664062 61.617188 41.523438 61.523438 41.710938 60.488281 C 42.136719 58.371094 38.515625 57.621094 37.949219 59.6875 C 37.855469 60.207031 37.949219 60.816406 38.230469 61.101562 C 38.609375 61.476562 38.230469 61.617188 36.914062 61.617188 C 35.269531 61.617188 35.175781 61.570312 35.832031 60.769531 C 36.257812 60.347656 37.148438 58.464844 37.855469 56.679688 C 40.253906 50.609375 40.160156 50.609375 42.277344 56.160156 Z M 50.082031 52.164062 C 50.222656 52.398438 50.128906 52.726562 49.847656 52.914062 C 49.613281 53.058594 49.378906 54.890625 49.378906 56.960938 L 49.378906 60.675781 L 50.742188 60.675781 C 51.726562 60.675781 52.246094 60.394531 52.433594 59.734375 C 52.902344 58.324219 53.609375 58.605469 53.609375 60.207031 L 53.609375 61.617188 L 46.554688 61.617188 L 47.027344 60.394531 C 47.683594 58.75 47.636719 53.292969 46.980469 52.867188 C 46.601562 52.679688 46.648438 52.445312 47.074219 52.164062 C 47.964844 51.597656 49.707031 51.644531 50.082031 52.164062 Z M 66.117188 55.925781 C 66.964844 58.089844 68.046875 60.253906 68.46875 60.769531 C 69.503906 61.851562 69.316406 61.992188 67.105469 61.710938 C 65.648438 61.570312 65.460938 61.382812 65.882812 60.863281 C 66.636719 59.925781 65.601562 58.796875 63.953125 58.796875 C 62.308594 58.796875 61.273438 59.925781 62.027344 60.863281 C 62.78125 61.757812 62.074219 62.132812 60.476562 61.710938 C 59.347656 61.382812 59.253906 61.289062 59.863281 60.769531 C 60.238281 60.441406 61.273438 58.277344 62.121094 55.972656 C 63.015625 53.621094 63.859375 51.785156 64.097656 51.878906 C 64.332031 51.929688 65.226562 53.761719 66.117188 55.925781 Z M 76.558594 53.246094 C 76.746094 54.796875 76.085938 54.9375 75.148438 53.574219 C 74.675781 52.820312 74.207031 52.632812 73.453125 52.867188 C 71.902344 53.386719 72.183594 54.234375 74.769531 56.394531 C 77.640625 58.796875 77.875 60.253906 75.664062 61.429688 C 74.160156 62.183594 71.339844 62.039062 70.773438 61.148438 C 70.398438 60.535156 70.960938 58.796875 71.480469 58.796875 C 71.714844 58.796875 72.042969 59.21875 72.183594 59.734375 C 72.371094 60.347656 72.890625 60.675781 73.640625 60.675781 C 75.289062 60.675781 75.664062 59.3125 74.300781 58.371094 C 72.324219 57.007812 70.539062 55.125 70.539062 54.375 C 70.539062 52.867188 72.324219 51.691406 74.441406 51.832031 C 76.183594 51.976562 76.417969 52.117188 76.558594 53.246094 Z M 91.371094 52.070312 C 91.558594 52.210938 91.417969 52.679688 91.089844 53.058594 C 90.382812 53.949219 90.382812 59.875 91.136719 60.816406 C 91.886719 61.710938 91.558594 61.945312 89.632812 61.710938 C 88.125 61.523438 87.984375 61.429688 88.457031 60.582031 C 89.019531 59.546875 88.832031 53.996094 88.171875 52.539062 C 87.890625 51.878906 88.078125 51.738281 89.441406 51.738281 C 90.335938 51.738281 91.230469 51.878906 91.371094 52.070312 Z M 99.648438 52.398438 C 99.929688 52.726562 100.070312 53.386719 99.882812 53.808594 C 99.554688 54.609375 98.753906 54.84375 98.753906 54.089844 C 98.753906 53.855469 98.285156 53.433594 97.765625 53.105469 C 96.96875 52.679688 96.589844 52.726562 95.980469 53.386719 C 95.273438 54.089844 95.320312 54.234375 96.636719 55.265625 C 99.789062 57.761719 100.210938 58.324219 100.070312 59.640625 C 99.882812 61.289062 97.859375 62.277344 95.648438 61.898438 C 94.378906 61.617188 94.050781 61.335938 94.050781 60.441406 C 94.050781 58.984375 94.992188 58.417969 95.320312 59.6875 C 95.601562 60.816406 97.390625 61.054688 98.238281 60.019531 C 98.660156 59.5 98.613281 59.171875 98.046875 58.605469 C 97.625 58.183594 97.109375 57.855469 96.921875 57.855469 C 96.683594 57.855469 95.980469 57.335938 95.273438 56.679688 C 93.769531 55.265625 93.675781 53.480469 95.085938 52.492188 C 96.402344 51.550781 98.941406 51.503906 99.648438 52.398438 Z M 109.757812 52.023438 C 110.558594 52.304688 110.792969 54.328125 110.085938 54.75 C 109.898438 54.890625 109.476562 54.46875 109.195312 53.855469 C 107.972656 51.222656 107.03125 53.246094 107.3125 57.714844 C 107.40625 59.21875 107.640625 60.769531 107.828125 61.148438 C 108.113281 61.757812 107.828125 61.851562 106.042969 61.710938 C 104.210938 61.523438 104.019531 61.429688 104.632812 60.816406 C 105.480469 60.019531 105.621094 54.984375 104.820312 53.527344 C 104.304688 52.585938 104.257812 52.585938 103.175781 53.902344 L 102.09375 55.265625 L 102.046875 53.761719 C 102.046875 52.726562 102.28125 52.210938 102.890625 52.070312 C 104.113281 51.738281 108.910156 51.691406 109.757812 52.023438 Z M 110.746094 59.078125 C 110.132812 60.535156 109.898438 60.769531 109.570312 60.207031 C 108.675781 58.84375 109.003906 56.632812 110.179688 56.113281 C 111.546875 55.457031 111.78125 56.632812 110.746094 59.078125 Z M 110.746094 59.078125 "/>
<path style=" stroke:none;fill-rule:nonzero;fill:rgb(0%,0%,0%);fill-opacity:1;" d="M 76.324219 8.5625 C 75.804688 9.171875 75.101562 10.113281 74.816406 10.675781 C 74.535156 11.289062 73.878906 11.757812 73.453125 11.757812 C 72.324219 11.757812 70.539062 13.453125 70.539062 14.535156 C 70.539062 15.003906 70.914062 15.710938 71.386719 16.132812 C 72.65625 17.308594 74.863281 22.058594 75.054688 24.082031 C 75.382812 27.375 75.289062 30.007812 74.769531 30.339844 C 74.488281 30.480469 74.300781 31.042969 74.300781 31.609375 C 74.300781 32.597656 73.265625 34.664062 71.855469 36.640625 C 70.726562 38.191406 70.820312 39.179688 72.230469 40.875 C 73.738281 42.707031 74.488281 42.707031 75.757812 40.96875 C 76.746094 39.605469 76.839844 39.605469 78.109375 40.261719 C 79.285156 40.828125 79.660156 40.875 81.074219 40.261719 C 82.8125 39.558594 83.941406 37.957031 83.519531 36.875 C 83.375 36.5 83.707031 35.558594 84.222656 34.808594 C 84.929688 33.867188 85.164062 33.113281 84.929688 32.265625 C 84.742188 31.515625 84.929688 30.480469 85.398438 29.539062 C 86.011719 28.410156 86.058594 27.84375 85.632812 27.1875 C 85.351562 26.714844 85.257812 25.492188 85.398438 24.316406 C 85.585938 23 85.492188 22.105469 85.164062 21.917969 C 84.882812 21.730469 84.644531 20.789062 84.644531 19.847656 C 84.644531 18.863281 84.222656 17.589844 83.707031 16.933594 C 83.1875 16.273438 82.765625 15.332031 82.765625 14.816406 C 82.765625 14.300781 82.246094 13.265625 81.589844 12.511719 C 80.929688 11.757812 80.414062 10.960938 80.414062 10.769531 C 80.414062 10.300781 78.0625 7.527344 77.640625 7.527344 C 77.453125 7.527344 76.839844 7.996094 76.324219 8.5625 Z M 78.53125 11.242188 C 78.53125 12.792969 77.875 13.875 77.167969 13.453125 C 76.605469 13.074219 76.464844 10.914062 76.933594 9.6875 C 77.355469 8.5625 78.53125 9.6875 78.53125 11.242188 Z M 75.007812 13.640625 C 76.652344 14.25 76.039062 15.050781 73.878906 15.050781 C 71.667969 15.050781 71.148438 14.582031 72.511719 13.78125 C 73.832031 13.074219 73.546875 13.074219 75.007812 13.640625 Z M 80.882812 14.722656 C 80.882812 16.179688 80.226562 17.402344 79.378906 17.402344 C 78.863281 17.402344 78.910156 15.144531 79.472656 14.0625 C 80.226562 12.699219 80.882812 12.980469 80.882812 14.722656 Z M 76.558594 16.746094 C 78.0625 17.167969 77.875 18.34375 76.324219 18.34375 C 75.570312 18.34375 74.675781 18.109375 74.300781 17.875 C 73.6875 17.449219 73.6875 17.355469 74.300781 16.933594 C 75.148438 16.414062 75.148438 16.367188 76.558594 16.746094 Z M 83.234375 18.71875 C 83.234375 19.847656 81.917969 21.636719 81.074219 21.636719 C 80.085938 21.636719 80.273438 20.085938 81.402344 18.625 C 82.4375 17.308594 83.234375 17.355469 83.234375 18.71875 Z M 77.96875 20.507812 C 79.332031 21.449219 79.285156 22.105469 77.921875 22.105469 C 76.558594 22.105469 74.863281 20.460938 75.804688 20.085938 C 76.746094 19.707031 76.839844 19.707031 77.96875 20.507812 Z M 84.175781 23.328125 C 84.175781 23.707031 83.660156 24.554688 83 25.210938 C 81.589844 26.621094 80.601562 26.339844 81.402344 24.789062 C 82.671875 22.34375 84.175781 21.542969 84.175781 23.328125 Z M 79.003906 24.457031 C 80.882812 26.339844 79.613281 27.09375 77.40625 25.351562 C 76.746094 24.835938 76.183594 24.175781 76.183594 23.941406 C 76.183594 23.1875 78.0625 23.519531 79.003906 24.457031 Z M 78.675781 28.128906 C 79.566406 28.925781 79.753906 30.101562 79.003906 30.101562 C 78.203125 30.101562 76.085938 27.796875 76.417969 27.28125 C 76.746094 26.761719 77.308594 27 78.675781 28.128906 Z M 84.644531 27.75 C 84.644531 28.550781 82.4375 30.574219 81.589844 30.574219 C 80.601562 30.574219 80.695312 29.632812 81.917969 28.363281 C 82.953125 27.234375 84.644531 26.90625 84.644531 27.75 Z M 77.6875 31.375 C 78.578125 32.171875 78.863281 33.867188 78.109375 33.867188 C 77.453125 33.867188 75.664062 31.46875 75.992188 30.996094 C 76.371094 30.386719 76.699219 30.480469 77.6875 31.375 Z M 83.707031 32.644531 C 83.707031 33.488281 81.917969 34.808594 80.789062 34.808594 C 79.566406 34.808594 79.753906 34.101562 81.167969 32.972656 C 82.625 31.84375 83.707031 31.703125 83.707031 32.644531 Z M 76.605469 35.464844 C 77.453125 37.207031 76.605469 38.144531 75.523438 36.640625 C 74.628906 35.324219 74.535156 33.726562 75.382812 33.960938 C 75.664062 34.101562 76.230469 34.757812 76.605469 35.464844 Z M 74.113281 37.488281 C 74.769531 38.382812 74.960938 40.074219 74.441406 40.59375 C 73.832031 41.203125 72.890625 39.839844 72.890625 38.289062 C 72.890625 36.5 73.21875 36.3125 74.113281 37.488281 Z M 82.296875 37.113281 C 82.296875 37.769531 81.121094 38.570312 79.566406 38.851562 C 77.875 39.179688 77.5 38.382812 78.910156 37.347656 C 79.800781 36.640625 82.296875 36.453125 82.296875 37.113281 Z M 82.296875 37.113281 "/>
<path style=" stroke:none;fill-rule:nonzero;fill:rgb(0%,0%,0%);fill-opacity:1;" d="M 37.761719 9.171875 C 37.292969 9.878906 36.351562 11.148438 35.644531 11.996094 C 34.894531 12.839844 34.328125 13.921875 34.328125 14.394531 C 34.328125 14.910156 33.90625 15.898438 33.386719 16.699219 C 32.871094 17.449219 32.449219 18.910156 32.449219 19.847656 C 32.449219 20.789062 32.210938 21.730469 31.929688 21.917969 C 31.601562 22.105469 31.507812 23 31.695312 24.316406 C 31.835938 25.492188 31.742188 26.714844 31.460938 27.1875 C 31.035156 27.84375 31.085938 28.363281 31.648438 29.445312 C 32.023438 30.195312 32.257812 31.421875 32.117188 32.125 C 31.976562 32.925781 32.164062 33.867188 32.730469 34.664062 C 33.199219 35.417969 33.53125 36.453125 33.433594 37.015625 C 33.386719 37.675781 33.8125 38.570312 34.515625 39.273438 C 35.175781 39.933594 35.738281 40.78125 35.738281 41.15625 C 35.738281 42.285156 37.761719 44.214844 39.265625 44.496094 C 41.992188 44.964844 46.648438 40.167969 45.757812 37.769531 C 45.566406 37.300781 44.863281 35.886719 44.109375 34.664062 C 43.40625 33.441406 42.792969 32.03125 42.792969 31.515625 C 42.792969 31.042969 42.558594 30.480469 42.324219 30.339844 C 41.898438 30.054688 41.804688 29.398438 41.851562 26.339844 C 41.898438 24.363281 42.230469 22.71875 42.699219 21.777344 C 43.027344 21.214844 43.261719 20.460938 43.261719 20.039062 C 43.261719 19.660156 44.015625 18.390625 44.910156 17.214844 C 45.804688 15.992188 46.554688 14.769531 46.554688 14.441406 C 46.554688 13.59375 44.582031 11.757812 43.6875 11.757812 C 43.261719 11.757812 42.417969 10.960938 41.804688 9.972656 C 40.394531 7.808594 38.9375 7.480469 37.761719 9.171875 Z M 40.347656 11.289062 C 40.535156 13.074219 39.691406 14.25 39.03125 13.171875 C 38.515625 12.324219 38.421875 10.160156 38.890625 9.6875 C 39.546875 9.03125 40.207031 9.738281 40.347656 11.289062 Z M 37.621094 14.0625 C 38.324219 15.429688 38.230469 17.402344 37.433594 17.402344 C 36.679688 17.402344 35.503906 14.394531 35.976562 13.640625 C 36.445312 12.886719 37.054688 13.074219 37.621094 14.0625 Z M 44.25 13.640625 C 45.710938 14.441406 45.285156 15.050781 43.261719 15.050781 C 41.289062 15.050781 40.816406 14.488281 42.230469 13.6875 C 43.214844 13.074219 43.167969 13.074219 44.25 13.640625 Z M 43.261719 17.261719 C 43.6875 17.6875 42.039062 18.34375 40.582031 18.34375 C 38.796875 18.34375 38.515625 17.589844 40.113281 16.933594 C 41.054688 16.558594 42.652344 16.746094 43.261719 17.261719 Z M 36.023438 19.050781 C 36.867188 21.070312 36.867188 21.636719 35.976562 21.636719 C 35.128906 21.636719 33.671875 19.003906 34.046875 18.0625 C 34.46875 16.933594 35.269531 17.355469 36.023438 19.050781 Z M 41.523438 20.085938 C 42.089844 20.601562 40.347656 22.105469 39.171875 22.105469 C 37.667969 22.105469 37.808594 20.882812 39.40625 20.320312 C 41.007812 19.707031 41.148438 19.707031 41.523438 20.085938 Z M 35.832031 25.164062 C 36.023438 26.527344 34.847656 26.339844 33.71875 24.835938 C 33.152344 24.082031 32.917969 23.28125 33.105469 22.765625 C 33.386719 22.011719 33.53125 22.011719 34.5625 23.09375 C 35.175781 23.707031 35.738281 24.648438 35.832031 25.164062 Z M 40.816406 24.082031 C 40.722656 24.363281 40.066406 25.070312 39.359375 25.585938 C 37.667969 26.8125 36.726562 26.011719 38.089844 24.554688 C 39.125 23.472656 41.148438 23.09375 40.816406 24.082031 Z M 40.347656 28.128906 C 39.59375 29.164062 38.46875 30.101562 37.996094 30.101562 C 37.199219 30.101562 37.667969 28.691406 38.84375 27.796875 C 40.253906 26.714844 41.289062 26.953125 40.347656 28.128906 Z M 35.128906 28.316406 C 36.351562 29.492188 36.539062 30.574219 35.503906 30.574219 C 34.65625 30.574219 32.449219 28.550781 32.449219 27.75 C 32.449219 26.953125 34 27.234375 35.128906 28.316406 Z M 41.382812 30.855469 C 41.382812 31.46875 39.40625 34.335938 38.984375 34.335938 C 38.324219 34.335938 38.46875 32.785156 39.3125 31.609375 C 39.972656 30.667969 41.382812 30.148438 41.382812 30.855469 Z M 36.398438 33.394531 C 36.914062 33.914062 37.199219 34.476562 37.007812 34.664062 C 36.445312 35.230469 34.234375 34.148438 33.433594 32.972656 C 32.683594 31.84375 32.730469 31.84375 34.09375 32.171875 C 34.894531 32.359375 35.925781 32.925781 36.398438 33.394531 Z M 42.324219 34.902344 C 42.277344 36.265625 41.148438 37.816406 40.488281 37.394531 C 39.785156 36.96875 39.832031 36.125 40.722656 34.902344 C 41.664062 33.582031 42.324219 33.582031 42.324219 34.902344 Z M 38.277344 37.394531 C 39.21875 38.097656 38.9375 39.039062 37.714844 39.039062 C 36.726562 39.039062 34.800781 37.769531 34.800781 37.113281 C 34.800781 36.453125 37.292969 36.640625 38.277344 37.394531 Z M 44.203125 38.191406 C 44.203125 40.027344 43.59375 41.15625 42.839844 40.734375 C 42.183594 40.308594 42.183594 38.804688 42.792969 37.582031 C 43.546875 36.21875 44.203125 36.5 44.203125 38.191406 Z M 40.394531 40.96875 C 42.371094 41.675781 41.992188 42.566406 39.785156 42.519531 C 37.714844 42.425781 36.539062 41.578125 37.621094 40.921875 C 38.515625 40.355469 38.609375 40.355469 40.394531 40.96875 Z M 40.394531 40.96875 "/>
<path style=" stroke:none;fill-rule:nonzero;fill:rgb(0%,0%,0%);fill-opacity:1;" d="M 56.382812 17.828125 C 55.820312 18.578125 54.503906 19.566406 53.421875 20.039062 C 50.550781 21.261719 49.847656 22.011719 49.847656 23.941406 C 49.800781 24.882812 49.519531 26.152344 49.140625 26.8125 C 48.203125 28.457031 48.296875 29.445312 49.519531 30.621094 C 50.410156 31.46875 50.929688 31.5625 52.996094 31.324219 C 54.410156 31.136719 55.539062 31.230469 55.726562 31.515625 C 55.867188 31.75 55.539062 32.785156 54.925781 33.820312 L 53.84375 35.699219 L 55.019531 36.921875 C 56.054688 38.050781 56.476562 38.144531 58.6875 38.003906 C 60.429688 37.863281 61.507812 37.488281 62.214844 36.78125 C 63.15625 35.792969 63.15625 35.699219 62.402344 34.101562 C 61.273438 31.796875 61.367188 30.902344 62.589844 31.277344 C 64.472656 31.890625 67.671875 31.089844 68.515625 29.773438 C 69.269531 28.644531 69.269531 28.503906 68.515625 27.1875 C 68.09375 26.433594 67.71875 24.976562 67.71875 24.035156 C 67.71875 21.964844 66.917969 21.070312 64.285156 20.226562 C 63.296875 19.941406 61.839844 18.957031 61.039062 18.0625 C 59.207031 16.085938 57.746094 15.992188 56.382812 17.828125 Z M 59.957031 19.191406 C 60.191406 20.273438 60.757812 20.742188 62.730469 21.589844 C 64.097656 22.152344 65.554688 22.484375 65.976562 22.296875 C 66.964844 21.917969 67.011719 22.71875 66.117188 23.519531 C 65.742188 23.800781 65.554688 24.363281 65.695312 24.789062 C 65.835938 25.164062 65.742188 25.632812 65.460938 25.824219 C 64.847656 26.199219 65.273438 28.222656 65.929688 28.222656 C 66.164062 28.222656 66.257812 27.75 66.070312 27.140625 C 65.789062 26.152344 65.789062 26.152344 66.730469 27.28125 C 68.28125 29.210938 67.90625 29.679688 64.847656 29.726562 C 62.636719 29.726562 61.652344 29.066406 62.449219 28.082031 C 62.730469 27.75 63.34375 26.667969 63.71875 25.683594 L 64.472656 23.941406 L 62.449219 23.046875 C 61.132812 22.484375 60.757812 22.152344 61.367188 22.152344 C 62.121094 22.105469 62.167969 22.011719 61.605469 21.636719 C 60.144531 20.742188 59.863281 21.964844 59.957031 28.082031 C 60.050781 33.679688 60.144531 34.054688 61.085938 34.382812 C 62.730469 34.996094 62.214844 35.277344 60.003906 34.996094 C 58.828125 34.808594 57.511719 34.855469 57.042969 35.089844 C 56.429688 35.371094 57.089844 35.558594 59.253906 35.746094 L 62.308594 36.078125 L 58.921875 36.125 C 56.101562 36.21875 55.492188 36.078125 55.492188 35.511719 C 55.492188 35.089844 55.960938 34.617188 56.476562 34.382812 C 57.464844 34.054688 57.511719 33.726562 57.558594 28.316406 C 57.605469 23.09375 57.511719 22.578125 56.761719 22.578125 C 55.773438 22.578125 53.140625 23.847656 53.140625 24.363281 C 53.140625 24.554688 53.703125 25.632812 54.316406 26.761719 C 55.253906 28.363281 55.394531 28.925781 54.925781 29.257812 C 54.03125 29.820312 51.398438 29.867188 49.941406 29.398438 C 49.472656 29.210938 49.519531 28.878906 50.269531 27.988281 C 51.445312 26.433594 52.011719 24.082031 51.304688 23.375 C 50.550781 22.625 50.695312 21.964844 51.539062 22.296875 C 52.808594 22.8125 57.230469 20.414062 57.558594 19.050781 C 57.984375 17.355469 59.582031 17.449219 59.957031 19.191406 Z M 59.957031 19.191406 "/>
<path style=" stroke:none;fill-rule:nonzero;fill:rgb(0%,0%,0%);fill-opacity:1;" d="M 58.078125 19.753906 C 57.699219 20.367188 58.265625 22.105469 58.828125 22.105469 C 59.0625 22.105469 59.253906 21.449219 59.253906 20.695312 C 59.253906 19.285156 58.640625 18.8125 58.078125 19.753906 Z M 58.078125 19.753906 "/>
<path style=" stroke:none;fill-rule:nonzero;fill:rgb(0%,0%,0%);fill-opacity:1;" d="M 58.171875 26.480469 C 57.886719 30.527344 58.125 32.453125 58.828125 32.453125 C 59.347656 32.453125 59.394531 23.988281 58.828125 23.140625 C 58.59375 22.765625 58.359375 24.082031 58.171875 26.480469 Z M 58.171875 26.480469 "/>
<path style=" stroke:none;fill-rule:nonzero;fill:rgb(0%,0%,0%);fill-opacity:1;" d="M 49.328125 40.96875 L 48.34375 41.957031 L 49.328125 42.992188 C 50.269531 43.933594 50.882812 43.980469 58.5 44.121094 C 66.542969 44.261719 66.683594 44.261719 67.953125 43.132812 L 69.269531 42.003906 L 68.28125 41.015625 C 67.292969 40.027344 66.824219 39.980469 58.78125 39.980469 C 50.789062 39.980469 50.269531 40.027344 49.328125 40.96875 Z M 67.953125 41.863281 C 68.140625 42.191406 64.988281 42.332031 58.78125 42.332031 C 52.574219 42.332031 49.425781 42.191406 49.613281 41.863281 C 49.800781 41.578125 53.375 41.390625 58.78125 41.390625 C 64.191406 41.390625 67.765625 41.578125 67.953125 41.863281 Z M 67.953125 41.863281 "/>
<path style=" stroke:none;fill-rule:nonzero;fill:rgb(0%,0%,0%);fill-opacity:1;" d="M 39.5 55.457031 C 39.5 55.691406 39.359375 56.207031 39.21875 56.632812 C 39.03125 57.195312 39.21875 57.382812 39.972656 57.382812 C 40.722656 57.382812 40.914062 57.195312 40.722656 56.632812 C 40.582031 56.207031 40.441406 55.691406 40.441406 55.457031 C 40.441406 55.21875 40.253906 55.03125 39.972656 55.03125 C 39.738281 55.03125 39.5 55.21875 39.5 55.457031 Z M 39.5 55.457031 "/>
<path style=" stroke:none;fill-rule:nonzero;fill:rgb(0%,0%,0%);fill-opacity:1;" d="M 63.34375 56.066406 C 63.0625 57.148438 63.90625 58.089844 64.519531 57.476562 C 64.941406 57.054688 64.472656 55.03125 63.953125 55.03125 C 63.765625 55.03125 63.484375 55.503906 63.34375 56.066406 Z M 63.34375 56.066406 "/>
</g>
</svg>
