<?xml version="1.0" encoding="UTF-8"?>
<svg xmlns="http://www.w3.org/2000/svg" xmlns:xlink="http://www.w3.org/1999/xlink" width="117px" height="94px" viewBox="0 0 117 94" version="1.1">
<g id="surface1">
<path style=" stroke:none;fill-rule:nonzero;fill:rgb(0%,0%,0%);fill-opacity:1;" d="M 73.804688 20.441406 C 73.753906 20.617188 73.640625 20.957031 73.5625 21.195312 C 73.484375 21.4375 73.417969 21.640625 73.414062 21.65625 C 73.414062 21.667969 73.378906 21.785156 73.335938 21.914062 C 73.292969 22.042969 73.257812 22.15625 73.257812 22.171875 C 73.253906 22.183594 73.246094 22.207031 73.238281 22.21875 C 73.234375 22.230469 73.164062 22.433594 73.089844 22.664062 C 73.015625 22.898438 72.882812 23.308594 72.796875 23.582031 C 72.707031 23.851562 72.625 24.097656 72.621094 24.121094 C 72.613281 24.148438 72.578125 24.257812 72.542969 24.371094 C 72.503906 24.480469 72.414062 24.757812 72.339844 24.992188 C 72.269531 25.226562 72.179688 25.5 72.144531 25.601562 C 72.105469 25.707031 72.007812 26.011719 71.917969 26.285156 C 71.835938 26.554688 71.738281 26.851562 71.710938 26.941406 C 71.601562 27.269531 71.320312 28.15625 71.3125 28.183594 C 71.3125 28.199219 71.304688 28.222656 71.296875 28.234375 C 71.285156 28.257812 71.179688 28.570312 71.167969 28.609375 C 71.167969 28.621094 71.132812 28.742188 71.089844 28.871094 C 71.046875 29 71.011719 29.113281 71.007812 29.128906 C 71.007812 29.140625 71 29.160156 70.992188 29.175781 C 70.984375 29.1875 70.917969 29.390625 70.84375 29.621094 C 70.769531 29.855469 70.652344 30.21875 70.582031 30.433594 C 70.511719 30.644531 70.449219 30.835938 70.449219 30.855469 C 70.445312 30.875 70.429688 30.917969 70.414062 30.957031 C 70.402344 30.992188 70.382812 31.046875 70.375 31.074219 C 70.371094 31.101562 70.332031 31.214844 70.296875 31.324219 C 70.257812 31.4375 70.167969 31.714844 70.09375 31.949219 C 70.023438 32.179688 69.933594 32.457031 69.894531 32.558594 C 69.859375 32.664062 69.761719 32.96875 69.671875 33.242188 C 69.371094 34.183594 69.234375 34.605469 69.082031 35.074219 C 68.996094 35.332031 68.925781 35.554688 68.921875 35.566406 C 68.910156 35.617188 68.796875 35.972656 68.773438 36.039062 C 68.757812 36.074219 68.746094 36.113281 68.746094 36.121094 C 68.746094 36.125 68.734375 36.15625 68.722656 36.1875 C 68.710938 36.21875 68.699219 36.261719 68.691406 36.28125 C 68.6875 36.304688 68.679688 36.335938 68.671875 36.355469 C 68.664062 36.375 68.613281 36.527344 68.558594 36.695312 C 68.503906 36.863281 68.402344 37.1875 68.328125 37.410156 C 68.152344 37.953125 67.847656 38.902344 67.773438 39.140625 C 67.742188 39.242188 67.6875 39.410156 67.648438 39.515625 C 67.613281 39.617188 67.535156 39.855469 67.476562 40.042969 C 67.417969 40.230469 67.324219 40.527344 67.265625 40.703125 C 67.210938 40.875 67.082031 41.273438 66.984375 41.582031 C 66.882812 41.894531 66.777344 42.21875 66.742188 42.3125 C 66.710938 42.402344 66.683594 42.492188 66.679688 42.511719 C 66.671875 42.53125 66.636719 42.652344 66.597656 42.78125 C 66.554688 42.910156 66.519531 43.027344 66.515625 43.039062 C 66.515625 43.050781 66.507812 43.074219 66.5 43.085938 C 66.492188 43.097656 66.425781 43.300781 66.351562 43.535156 C 66.277344 43.765625 66.15625 44.136719 66.085938 44.355469 C 66.015625 44.574219 65.957031 44.765625 65.960938 44.777344 C 65.964844 44.785156 65.957031 44.808594 65.945312 44.824219 C 65.933594 44.839844 65.851562 45.070312 65.765625 45.34375 C 65.679688 45.613281 65.582031 45.925781 65.546875 46.035156 C 65.507812 46.148438 65.460938 46.296875 65.4375 46.371094 L 65.394531 46.503906 L 65.507812 46.640625 C 65.570312 46.714844 65.628906 46.777344 65.644531 46.777344 C 65.660156 46.777344 65.671875 46.792969 65.671875 46.8125 C 65.671875 46.84375 65.785156 46.996094 66.136719 47.4375 C 66.257812 47.589844 66.277344 47.609375 66.3125 47.582031 C 66.347656 47.554688 66.347656 47.558594 66.320312 47.59375 C 66.285156 47.636719 66.304688 47.691406 66.34375 47.667969 C 66.359375 47.65625 66.363281 47.664062 66.355469 47.675781 C 66.335938 47.703125 66.570312 48 66.605469 47.992188 C 66.621094 47.988281 66.625 47.988281 66.613281 48 C 66.601562 48.011719 66.691406 48.140625 66.90625 48.410156 C 67.179688 48.761719 67.332031 48.949219 67.382812 49.007812 C 67.414062 49.046875 67.496094 49.152344 67.558594 49.238281 C 67.625 49.328125 67.691406 49.394531 67.707031 49.386719 C 67.722656 49.382812 67.734375 49.398438 67.734375 49.429688 C 67.730469 49.460938 67.742188 49.476562 67.765625 49.472656 C 67.785156 49.46875 67.792969 49.472656 67.785156 49.480469 C 67.757812 49.503906 67.859375 49.632812 67.886719 49.617188 C 67.902344 49.609375 67.90625 49.613281 67.898438 49.628906 C 67.890625 49.640625 67.921875 49.695312 67.964844 49.75 C 68.011719 49.804688 68.058594 49.871094 68.074219 49.894531 C 68.085938 49.917969 68.109375 49.929688 68.121094 49.921875 C 68.136719 49.914062 68.140625 49.917969 68.132812 49.933594 C 68.121094 49.945312 68.148438 50 68.195312 50.046875 C 68.238281 50.097656 68.316406 50.195312 68.371094 50.265625 C 68.429688 50.335938 68.484375 50.394531 68.5 50.394531 C 68.515625 50.398438 68.523438 50.414062 68.519531 50.429688 C 68.515625 50.453125 68.664062 50.65625 68.726562 50.714844 C 68.734375 50.71875 68.761719 50.761719 68.792969 50.800781 C 68.820312 50.84375 68.855469 50.871094 68.871094 50.863281 C 68.886719 50.855469 68.890625 50.859375 68.878906 50.871094 C 68.863281 50.90625 69.214844 51.351562 69.246094 51.332031 C 69.257812 51.324219 69.265625 51.328125 69.253906 51.34375 C 69.242188 51.363281 69.539062 51.769531 69.613281 51.839844 C 69.621094 51.847656 69.671875 51.914062 69.730469 51.988281 C 69.785156 52.0625 69.84375 52.117188 69.855469 52.105469 C 69.867188 52.097656 69.871094 52.105469 69.863281 52.117188 C 69.84375 52.148438 69.953125 52.269531 69.976562 52.246094 C 69.988281 52.234375 69.988281 52.242188 69.980469 52.257812 C 69.964844 52.28125 70.296875 52.738281 70.429688 52.871094 C 70.445312 52.890625 70.476562 52.929688 70.496094 52.960938 C 70.515625 52.988281 70.542969 53.007812 70.558594 53 C 70.570312 52.992188 70.574219 52.996094 70.566406 53.007812 C 70.546875 53.042969 70.707031 53.253906 70.746094 53.242188 C 70.761719 53.242188 70.769531 53.253906 70.765625 53.269531 C 70.765625 53.285156 70.816406 53.367188 70.882812 53.445312 C 70.949219 53.527344 71.027344 53.621094 71.050781 53.652344 C 71.074219 53.683594 71.085938 53.695312 71.074219 53.675781 C 71.0625 53.65625 71.066406 53.648438 71.085938 53.660156 C 71.101562 53.667969 71.109375 53.6875 71.101562 53.699219 C 71.09375 53.707031 71.109375 53.738281 71.132812 53.769531 L 71.171875 53.820312 L 71.308594 53.675781 C 71.390625 53.589844 71.433594 53.519531 71.425781 53.507812 C 71.417969 53.492188 71.417969 53.484375 71.433594 53.496094 C 71.457031 53.507812 71.5 53.472656 71.5 53.433594 C 71.5 53.421875 71.503906 53.417969 71.515625 53.421875 C 71.523438 53.425781 71.585938 53.375 71.648438 53.3125 C 71.746094 53.214844 71.761719 53.191406 71.738281 53.160156 C 71.714844 53.132812 71.714844 53.128906 71.738281 53.144531 C 71.757812 53.15625 71.789062 53.144531 71.816406 53.121094 C 71.855469 53.085938 71.855469 53.074219 71.832031 53.042969 C 71.808594 53.007812 71.808594 53.007812 71.839844 53.035156 C 71.871094 53.058594 71.882812 53.058594 71.90625 53.03125 C 71.917969 53.011719 71.921875 52.988281 71.914062 52.980469 C 71.902344 52.96875 71.90625 52.964844 71.921875 52.976562 C 71.949219 52.988281 72.277344 52.644531 72.265625 52.609375 C 72.261719 52.601562 72.269531 52.59375 72.28125 52.601562 C 72.308594 52.621094 72.472656 52.421875 72.460938 52.386719 C 72.453125 52.371094 72.460938 52.363281 72.480469 52.371094 C 72.496094 52.378906 72.5625 52.324219 72.636719 52.242188 C 72.707031 52.160156 72.808594 52.046875 72.867188 51.984375 C 72.925781 51.925781 73.085938 51.75 73.230469 51.59375 C 73.371094 51.4375 73.550781 51.242188 73.628906 51.160156 C 73.710938 51.074219 73.808594 50.96875 73.847656 50.925781 L 73.921875 50.84375 L 73.921875 35.480469 C 73.921875 27.03125 73.917969 20.117188 73.914062 20.117188 C 73.910156 20.117188 73.863281 20.261719 73.804688 20.441406 Z M 67.121094 48.546875 C 67.101562 48.566406 67.039062 48.570312 67.050781 48.554688 C 67.058594 48.542969 67.078125 48.535156 67.097656 48.535156 C 67.117188 48.535156 67.128906 48.542969 67.121094 48.546875 Z M 73.664062 51.101562 C 73.664062 51.121094 73.617188 51.132812 73.605469 51.117188 C 73.601562 51.105469 73.609375 51.097656 73.628906 51.097656 C 73.648438 51.097656 73.664062 51.101562 73.664062 51.101562 Z M 70.519531 52.890625 C 70.519531 52.914062 70.511719 52.914062 70.488281 52.894531 C 70.472656 52.882812 70.457031 52.867188 70.457031 52.863281 C 70.457031 52.859375 70.472656 52.859375 70.488281 52.859375 C 70.507812 52.859375 70.519531 52.871094 70.519531 52.890625 Z M 70.519531 52.890625 "/>
<path style=" stroke:none;fill-rule:nonzero;fill:rgb(0%,0%,0%);fill-opacity:1;" d="M 62.621094 28.109375 C 62.550781 28.292969 62.476562 28.488281 62.453125 28.539062 C 62.429688 28.59375 62.386719 28.707031 62.355469 28.800781 C 62.320312 28.886719 62.230469 29.128906 62.152344 29.328125 C 62.074219 29.527344 61.96875 29.792969 61.925781 29.914062 C 61.839844 30.136719 61.746094 30.390625 61.515625 30.984375 C 61.449219 31.152344 61.351562 31.414062 61.292969 31.558594 C 61.234375 31.707031 61.175781 31.867188 61.15625 31.910156 C 61.136719 31.949219 61.121094 31.996094 61.121094 32.007812 C 61.121094 32.023438 61.105469 32.066406 61.085938 32.109375 C 61.066406 32.148438 61 32.328125 60.933594 32.5 C 60.75 32.980469 60.695312 33.117188 60.675781 33.171875 C 60.664062 33.195312 60.589844 33.386719 60.511719 33.59375 C 60.433594 33.800781 60.34375 34.03125 60.3125 34.109375 C 60.28125 34.1875 60.21875 34.351562 60.171875 34.472656 C 60.09375 34.683594 59.96875 35.011719 59.84375 35.332031 C 59.816406 35.410156 59.722656 35.648438 59.640625 35.859375 C 59.554688 36.074219 59.425781 36.417969 59.347656 36.625 C 59.269531 36.832031 59.195312 37.027344 59.179688 37.058594 C 59.167969 37.09375 59.09375 37.289062 59.015625 37.496094 C 58.9375 37.699219 58.863281 37.890625 58.851562 37.917969 C 58.808594 38.019531 58.664062 38.398438 58.394531 39.105469 C 58.332031 39.265625 58.273438 39.417969 58.261719 39.445312 C 58.253906 39.46875 58.21875 39.558594 58.1875 39.644531 C 58.15625 39.730469 58.058594 39.976562 57.972656 40.195312 C 57.886719 40.414062 57.785156 40.675781 57.75 40.773438 C 57.714844 40.867188 57.605469 41.160156 57.503906 41.417969 C 57.40625 41.675781 57.300781 41.953125 57.269531 42.03125 C 57.242188 42.105469 57.171875 42.28125 57.121094 42.417969 C 57.066406 42.554688 57.011719 42.695312 57 42.734375 C 56.988281 42.773438 56.96875 42.828125 56.957031 42.851562 C 56.945312 42.878906 56.851562 43.109375 56.757812 43.371094 C 56.660156 43.628906 56.570312 43.859375 56.558594 43.886719 C 56.539062 43.929688 56.402344 44.277344 56.210938 44.789062 C 55.929688 45.523438 55.753906 45.976562 55.539062 46.53125 C 55.445312 46.769531 55.304688 47.136719 55.222656 47.351562 C 55.011719 47.917969 54.878906 48.261719 54.546875 49.113281 C 54.414062 49.449219 54.328125 49.695312 54.328125 49.71875 C 54.328125 49.734375 54.320312 49.75 54.308594 49.75 C 54.300781 49.75 54.289062 49.769531 54.28125 49.800781 C 54.273438 49.835938 54.289062 49.824219 54.347656 49.757812 C 54.390625 49.707031 54.425781 49.660156 54.429688 49.652344 C 54.429688 49.644531 54.464844 49.597656 54.511719 49.546875 C 54.554688 49.5 54.585938 49.441406 54.582031 49.425781 C 54.574219 49.410156 54.578125 49.398438 54.589844 49.40625 C 54.621094 49.425781 54.738281 49.285156 54.722656 49.253906 C 54.710938 49.238281 54.710938 49.230469 54.726562 49.238281 C 54.753906 49.257812 54.855469 49.15625 54.84375 49.121094 C 54.839844 49.109375 54.847656 49.09375 54.859375 49.089844 C 54.90625 49.085938 54.945312 49.039062 54.933594 49.003906 C 54.925781 48.984375 54.929688 48.976562 54.941406 48.984375 C 54.972656 49.003906 55.160156 48.765625 55.148438 48.726562 C 55.136719 48.707031 55.144531 48.699219 55.164062 48.707031 C 55.179688 48.714844 55.265625 48.625 55.367188 48.5 C 55.460938 48.378906 55.550781 48.273438 55.5625 48.265625 C 55.574219 48.257812 55.574219 48.238281 55.5625 48.222656 C 55.550781 48.203125 55.554688 48.195312 55.570312 48.207031 C 55.605469 48.230469 56.097656 47.621094 56.074219 47.582031 C 56.066406 47.566406 56.066406 47.558594 56.074219 47.566406 C 56.097656 47.585938 56.179688 47.511719 56.289062 47.367188 C 56.335938 47.300781 56.398438 47.226562 56.421875 47.203125 C 56.507812 47.113281 56.558594 47.03125 56.539062 47.011719 C 56.53125 47 56.535156 47 56.550781 47.007812 C 56.582031 47.027344 56.65625 46.933594 56.636719 46.902344 C 56.628906 46.890625 56.636719 46.886719 56.648438 46.886719 C 56.683594 46.898438 56.863281 46.671875 56.84375 46.640625 C 56.839844 46.628906 56.839844 46.625 56.855469 46.632812 C 56.867188 46.636719 56.949219 46.554688 57.039062 46.441406 C 57.277344 46.148438 57.789062 45.519531 57.867188 45.425781 C 57.902344 45.378906 58.003906 45.257812 58.089844 45.15625 C 58.171875 45.054688 58.234375 44.960938 58.230469 44.949219 C 58.222656 44.9375 58.226562 44.933594 58.242188 44.9375 C 58.253906 44.941406 58.40625 44.769531 58.578125 44.554688 C 58.816406 44.265625 58.894531 44.15625 58.882812 44.121094 C 58.875 44.085938 58.875 44.082031 58.894531 44.105469 C 58.910156 44.128906 58.945312 44.101562 59.050781 43.96875 C 59.128906 43.875 59.1875 43.789062 59.183594 43.777344 C 59.179688 43.765625 59.1875 43.757812 59.199219 43.761719 C 59.210938 43.765625 59.277344 43.695312 59.351562 43.605469 C 59.570312 43.328125 59.589844 43.304688 59.796875 43.058594 C 59.914062 42.921875 59.992188 42.804688 59.984375 42.789062 C 59.972656 42.773438 59.976562 42.769531 59.992188 42.78125 C 60.027344 42.800781 60.148438 42.636719 60.125 42.601562 C 60.113281 42.585938 60.117188 42.582031 60.132812 42.589844 C 60.164062 42.609375 60.304688 42.445312 60.289062 42.414062 C 60.277344 42.398438 60.28125 42.394531 60.292969 42.402344 C 60.308594 42.410156 60.410156 42.300781 60.523438 42.164062 C 60.632812 42.023438 60.75 41.882812 60.78125 41.847656 C 60.8125 41.8125 60.835938 41.769531 60.828125 41.757812 C 60.820312 41.746094 60.824219 41.738281 60.835938 41.742188 C 60.847656 41.746094 60.929688 41.664062 61.011719 41.558594 C 61.238281 41.28125 61.261719 41.257812 61.269531 41.269531 C 61.273438 41.273438 61.378906 41.40625 61.503906 41.566406 C 61.632812 41.726562 61.753906 41.878906 61.777344 41.902344 C 61.800781 41.925781 61.824219 41.953125 61.824219 41.964844 C 61.835938 42.007812 61.945312 42.132812 61.96875 42.128906 C 61.988281 42.125 61.996094 42.140625 61.992188 42.164062 C 61.988281 42.1875 62.003906 42.21875 62.035156 42.234375 C 62.058594 42.25 62.082031 42.273438 62.082031 42.285156 C 62.082031 42.292969 62.167969 42.414062 62.277344 42.550781 C 62.390625 42.683594 62.496094 42.820312 62.515625 42.851562 C 62.535156 42.886719 62.5625 42.902344 62.574219 42.898438 C 62.585938 42.890625 62.59375 42.890625 62.589844 42.902344 C 62.585938 42.914062 62.621094 42.972656 62.664062 43.039062 L 62.746094 43.152344 L 62.753906 39.304688 C 62.757812 37.191406 62.757812 33.730469 62.753906 31.613281 L 62.746094 27.769531 Z M 61.527344 41.40625 C 61.535156 41.414062 61.519531 41.421875 61.496094 41.417969 C 61.433594 41.414062 61.417969 41.394531 61.472656 41.390625 C 61.496094 41.386719 61.523438 41.394531 61.527344 41.40625 Z M 60.957031 41.582031 C 60.957031 41.589844 60.941406 41.601562 60.925781 41.617188 C 60.902344 41.636719 60.894531 41.632812 60.894531 41.613281 C 60.894531 41.59375 60.90625 41.578125 60.925781 41.578125 C 60.941406 41.578125 60.957031 41.582031 60.957031 41.582031 Z M 60.171875 42.507812 C 60.179688 42.519531 60.167969 42.527344 60.148438 42.527344 C 60.132812 42.527344 60.121094 42.519531 60.128906 42.507812 C 60.136719 42.496094 60.144531 42.488281 60.148438 42.488281 C 60.15625 42.488281 60.164062 42.496094 60.171875 42.507812 Z M 59.695312 43.132812 C 59.695312 43.136719 59.675781 43.15625 59.652344 43.171875 C 59.617188 43.203125 59.613281 43.199219 59.644531 43.164062 C 59.675781 43.125 59.695312 43.113281 59.695312 43.132812 Z M 59.273438 43.648438 C 59.273438 43.652344 59.253906 43.671875 59.230469 43.6875 C 59.195312 43.71875 59.191406 43.71875 59.222656 43.679688 C 59.253906 43.640625 59.273438 43.628906 59.273438 43.648438 Z M 57.550781 45.730469 C 57.558594 45.742188 57.558594 45.757812 57.546875 45.765625 C 57.535156 45.769531 57.523438 45.761719 57.523438 45.742188 C 57.523438 45.703125 57.53125 45.699219 57.550781 45.730469 Z M 57.339844 45.890625 C 57.347656 45.902344 57.335938 45.910156 57.316406 45.910156 C 57.300781 45.910156 57.289062 45.902344 57.296875 45.890625 C 57.304688 45.882812 57.3125 45.871094 57.316406 45.871094 C 57.324219 45.871094 57.332031 45.882812 57.339844 45.890625 Z M 57.339844 45.890625 "/>
<path style=" stroke:none;fill-rule:nonzero;fill:rgb(0%,0%,0%);fill-opacity:1;" d="M 96.371094 30.976562 C 96.285156 31.015625 96.015625 31.128906 95.777344 31.230469 C 93.25 32.300781 92.152344 32.765625 91.855469 32.886719 C 91.664062 32.96875 90.863281 33.308594 90.078125 33.640625 C 89.292969 33.972656 88.410156 34.34375 88.117188 34.46875 C 87.824219 34.59375 87.589844 34.699219 87.589844 34.710938 C 87.59375 34.722656 87.746094 34.839844 87.925781 34.972656 C 88.546875 35.4375 89.070312 35.832031 89.539062 36.175781 C 89.796875 36.367188 90.011719 36.527344 90.015625 36.53125 C 90.027344 36.542969 89.929688 36.664062 89.753906 36.847656 C 89.671875 36.933594 89.476562 37.144531 89.316406 37.316406 C 89.160156 37.492188 88.90625 37.765625 88.757812 37.929688 C 88.164062 38.566406 87.542969 39.238281 87.410156 39.382812 C 87.285156 39.519531 85.644531 41.296875 85.261719 41.710938 C 85.179688 41.796875 85.003906 41.988281 84.871094 42.136719 C 84.46875 42.574219 83.632812 43.476562 82.507812 44.695312 C 82.164062 45.066406 81.75 45.515625 81.585938 45.695312 C 81.417969 45.875 81.226562 46.082031 81.160156 46.152344 C 80.53125 46.832031 80.054688 47.351562 79.78125 47.644531 C 79.605469 47.839844 79.339844 48.125 79.199219 48.28125 C 78.8125 48.699219 78.0625 49.511719 77.570312 50.042969 C 77.332031 50.300781 76.917969 50.75 76.648438 51.042969 C 76.378906 51.332031 76.046875 51.691406 75.910156 51.839844 C 75.613281 52.164062 74.738281 53.113281 74.554688 53.308594 C 74.480469 53.386719 74.222656 53.667969 73.980469 53.933594 C 73.320312 54.648438 72.113281 55.960938 71.898438 56.1875 C 71.21875 56.914062 71.21875 56.917969 71.804688 56.425781 C 72.101562 56.175781 72.519531 55.820312 72.738281 55.636719 C 73.472656 55.023438 74.457031 54.1875 75.90625 52.96875 C 76.695312 52.304688 77.511719 51.617188 77.722656 51.441406 C 77.925781 51.269531 78.363281 50.902344 78.683594 50.628906 C 79.003906 50.359375 79.367188 50.054688 79.488281 49.949219 C 79.613281 49.847656 79.820312 49.667969 79.957031 49.558594 C 80.09375 49.445312 80.363281 49.21875 80.554688 49.054688 C 80.75 48.890625 81.085938 48.605469 81.304688 48.425781 C 81.523438 48.238281 81.980469 47.851562 82.320312 47.566406 C 83.199219 46.824219 83.640625 46.453125 84.417969 45.800781 C 85.21875 45.125 85.65625 44.753906 86.730469 43.851562 C 87.167969 43.480469 87.558594 43.152344 87.605469 43.109375 C 87.652344 43.074219 88.148438 42.65625 88.710938 42.183594 C 89.269531 41.710938 89.953125 41.132812 90.230469 40.902344 C 91.613281 39.742188 92.773438 38.761719 92.820312 38.722656 L 92.871094 38.675781 L 93.214844 38.953125 C 94.367188 39.890625 95.089844 40.460938 95.101562 40.445312 C 95.109375 40.4375 95.242188 39.59375 95.398438 38.574219 C 95.675781 36.78125 96.066406 34.246094 96.40625 32.03125 C 96.496094 31.445312 96.570312 30.949219 96.570312 30.933594 C 96.570312 30.894531 96.5625 30.894531 96.371094 30.976562 Z M 96.371094 30.976562 "/>
<path style=" stroke:none;fill-rule:nonzero;fill:rgb(0%,0%,0%);fill-opacity:1;" d="M 51.515625 37.074219 C 51.464844 37.132812 51.410156 37.195312 51.398438 37.210938 C 51.382812 37.222656 51.304688 37.320312 51.222656 37.421875 C 51.136719 37.527344 50.988281 37.703125 50.890625 37.816406 C 50.789062 37.929688 50.707031 38.03125 50.707031 38.039062 C 50.707031 38.050781 50.667969 38.101562 50.617188 38.15625 C 50.570312 38.207031 50.488281 38.300781 50.4375 38.367188 C 50.386719 38.425781 50.230469 38.613281 50.085938 38.785156 C 49.949219 38.953125 49.804688 39.121094 49.773438 39.160156 C 49.742188 39.199219 49.632812 39.335938 49.527344 39.457031 C 49.429688 39.578125 49.300781 39.730469 49.246094 39.796875 C 49.195312 39.859375 49.089844 39.988281 49.007812 40.078125 C 48.933594 40.167969 48.738281 40.402344 48.578125 40.597656 C 48.417969 40.789062 48.277344 40.960938 48.265625 40.972656 C 48.25 40.988281 48.203125 41.042969 48.15625 41.101562 C 48.113281 41.160156 47.976562 41.324219 47.859375 41.464844 C 47.738281 41.605469 47.621094 41.746094 47.601562 41.773438 C 47.527344 41.867188 47.328125 42.101562 47.316406 42.113281 C 47.308594 42.117188 47.257812 42.183594 47.199219 42.253906 C 47.035156 42.453125 47 42.492188 46.964844 42.535156 C 46.945312 42.554688 46.886719 42.625 46.835938 42.6875 C 46.785156 42.753906 46.679688 42.878906 46.601562 42.972656 C 46.523438 43.0625 46.417969 43.1875 46.367188 43.25 C 46.316406 43.316406 46.234375 43.410156 46.191406 43.464844 C 46.085938 43.585938 46.078125 43.59375 45.917969 43.792969 C 45.84375 43.882812 45.757812 43.984375 45.734375 44.015625 C 45.703125 44.046875 45.566406 44.210938 45.425781 44.378906 C 45.285156 44.546875 45.148438 44.710938 45.121094 44.742188 C 45.027344 44.851562 44.660156 45.296875 44.566406 45.414062 C 44.515625 45.476562 44.414062 45.597656 44.34375 45.683594 C 44.273438 45.769531 44.199219 45.859375 44.175781 45.882812 C 44.15625 45.910156 44.097656 45.976562 44.046875 46.035156 C 43.996094 46.09375 43.910156 46.199219 43.851562 46.269531 C 43.792969 46.339844 43.734375 46.40625 43.722656 46.421875 C 43.707031 46.4375 43.613281 46.554688 43.507812 46.683594 C 43.40625 46.8125 43.292969 46.945312 43.257812 46.972656 C 43.222656 47.007812 43.195312 47.042969 43.195312 47.0625 C 43.195312 47.074219 43.179688 47.09375 43.160156 47.101562 C 43.144531 47.109375 43.125 47.132812 43.125 47.15625 C 43.125 47.203125 44.125 48.191406 44.160156 48.179688 C 44.171875 48.175781 44.175781 48.183594 44.167969 48.195312 C 44.15625 48.214844 44.492188 48.5625 44.527344 48.5625 C 44.535156 48.5625 44.539062 48.570312 44.539062 48.578125 C 44.535156 48.582031 44.5625 48.621094 44.601562 48.65625 C 44.640625 48.695312 44.671875 48.714844 44.671875 48.707031 C 44.671875 48.695312 44.6875 48.699219 44.707031 48.714844 C 44.722656 48.730469 44.734375 48.753906 44.730469 48.761719 C 44.710938 48.789062 44.882812 48.929688 44.910156 48.914062 C 44.925781 48.902344 44.929688 48.90625 44.917969 48.925781 C 44.898438 48.957031 45.277344 49.332031 45.308594 49.308594 C 45.324219 49.304688 45.324219 49.304688 45.320312 49.320312 C 45.300781 49.34375 45.402344 49.449219 45.425781 49.433594 C 45.4375 49.425781 45.4375 49.425781 45.429688 49.4375 C 45.425781 49.445312 45.429688 49.464844 45.445312 49.484375 C 45.46875 49.511719 45.480469 49.511719 45.511719 49.484375 C 45.542969 49.460938 45.542969 49.460938 45.519531 49.492188 C 45.496094 49.523438 45.519531 49.558594 45.671875 49.710938 C 45.773438 49.8125 45.863281 49.882812 45.875 49.875 C 45.886719 49.863281 45.886719 49.867188 45.878906 49.882812 C 45.863281 49.914062 46.277344 50.324219 46.308594 50.300781 C 46.324219 50.292969 46.332031 50.292969 46.328125 50.304688 C 46.320312 50.359375 46.335938 50.390625 46.363281 50.375 C 46.40625 50.359375 46.449219 50.402344 46.433594 50.445312 C 46.421875 50.476562 46.453125 50.488281 46.507812 50.476562 C 46.523438 50.476562 46.523438 50.484375 46.515625 50.488281 C 46.492188 50.511719 46.535156 50.59375 46.566406 50.59375 C 46.582031 50.59375 46.585938 50.582031 46.574219 50.566406 C 46.5625 50.546875 46.570312 50.546875 46.597656 50.570312 C 46.621094 50.589844 46.632812 50.605469 46.625 50.613281 C 46.605469 50.636719 46.664062 50.691406 46.691406 50.671875 C 46.703125 50.664062 46.707031 50.667969 46.699219 50.683594 C 46.679688 50.714844 46.855469 50.882812 46.882812 50.859375 C 46.890625 50.847656 46.894531 50.855469 46.882812 50.871094 C 46.871094 50.898438 46.90625 50.9375 46.953125 50.9375 C 46.964844 50.9375 46.976562 50.953125 46.976562 50.972656 C 46.976562 50.992188 46.992188 51.003906 47.007812 51 C 47.023438 50.996094 47.03125 51.003906 47.023438 51.015625 C 47.007812 51.042969 47.089844 51.117188 47.117188 51.097656 C 47.125 51.085938 47.128906 51.089844 47.121094 51.101562 C 47.101562 51.136719 47.179688 51.214844 47.210938 51.191406 C 47.21875 51.179688 47.222656 51.183594 47.214844 51.195312 C 47.195312 51.230469 47.273438 51.308594 47.304688 51.285156 C 47.3125 51.273438 47.316406 51.277344 47.308594 51.292969 C 47.289062 51.324219 47.507812 51.542969 47.535156 51.519531 C 47.546875 51.507812 47.546875 51.511719 47.542969 51.527344 C 47.523438 51.558594 47.722656 51.757812 47.757812 51.738281 C 47.773438 51.726562 47.777344 51.734375 47.769531 51.757812 C 47.757812 51.785156 47.765625 51.796875 47.796875 51.789062 C 47.828125 51.785156 47.839844 51.792969 47.835938 51.828125 C 47.828125 51.859375 47.835938 51.867188 47.863281 51.855469 C 47.886719 51.84375 47.898438 51.851562 47.886719 51.867188 C 47.871094 51.894531 48.285156 52.3125 48.324219 52.3125 C 48.335938 52.3125 48.34375 52.324219 48.34375 52.34375 C 48.34375 52.363281 48.355469 52.386719 48.371094 52.394531 C 48.390625 52.40625 48.390625 52.402344 48.378906 52.382812 C 48.371094 52.367188 48.453125 52.449219 48.566406 52.566406 C 48.746094 52.75 48.777344 52.777344 48.808594 52.753906 C 48.84375 52.726562 48.84375 52.726562 48.820312 52.761719 C 48.792969 52.789062 48.855469 52.859375 49.222656 53.21875 C 49.457031 53.457031 49.65625 53.640625 49.664062 53.632812 C 49.671875 53.625 49.679688 53.636719 49.679688 53.65625 C 49.679688 53.679688 49.695312 53.699219 49.71875 53.699219 C 49.738281 53.699219 49.75 53.703125 49.742188 53.710938 C 49.738281 53.714844 49.90625 53.890625 50.117188 54.101562 C 50.476562 54.460938 50.5 54.480469 50.53125 54.441406 C 50.550781 54.417969 50.558594 54.386719 50.554688 54.375 C 50.546875 54.367188 50.554688 54.351562 50.570312 54.339844 C 50.589844 54.328125 50.589844 54.335938 50.578125 54.359375 C 50.546875 54.410156 50.597656 54.359375 50.742188 54.179688 C 50.8125 54.09375 50.863281 54.011719 50.855469 53.996094 C 50.847656 53.984375 50.851562 53.980469 50.863281 53.988281 C 50.898438 54.007812 50.972656 53.917969 50.953125 53.886719 C 50.945312 53.871094 50.949219 53.863281 50.96875 53.867188 C 50.984375 53.871094 50.996094 53.859375 50.992188 53.84375 C 50.992188 53.824219 50.996094 53.816406 51.007812 53.824219 C 51.019531 53.832031 51.097656 53.75 51.179688 53.644531 C 51.265625 53.539062 51.402344 53.371094 51.476562 53.273438 L 51.621094 53.097656 L 51.621094 45.03125 C 51.621094 40.597656 51.617188 36.964844 51.617188 36.964844 C 51.609375 36.964844 51.566406 37.015625 51.515625 37.074219 Z M 45.445312 49.320312 C 45.476562 49.355469 45.472656 49.359375 45.4375 49.328125 C 45.398438 49.296875 45.386719 49.28125 45.40625 49.28125 C 45.410156 49.28125 45.429688 49.296875 45.445312 49.320312 Z M 46.800781 50.777344 C 46.832031 50.8125 46.832031 50.816406 46.796875 50.785156 C 46.753906 50.753906 46.742188 50.738281 46.761719 50.738281 C 46.765625 50.738281 46.785156 50.753906 46.800781 50.777344 Z M 47.140625 50.996094 C 47.164062 51.035156 47.140625 51.042969 47.109375 51.003906 C 47.09375 50.984375 47.089844 50.972656 47.101562 50.972656 C 47.113281 50.972656 47.132812 50.984375 47.140625 50.996094 Z M 47.328125 51.183594 C 47.351562 51.222656 47.328125 51.230469 47.296875 51.191406 C 47.28125 51.171875 47.277344 51.160156 47.289062 51.160156 C 47.300781 51.160156 47.320312 51.171875 47.328125 51.183594 Z M 47.902344 51.738281 C 47.933594 51.777344 47.929688 51.78125 47.894531 51.75 C 47.855469 51.71875 47.84375 51.699219 47.863281 51.699219 C 47.867188 51.699219 47.886719 51.71875 47.902344 51.738281 Z M 48.207031 52.1875 C 48.238281 52.222656 48.234375 52.226562 48.199219 52.195312 C 48.160156 52.164062 48.148438 52.148438 48.167969 52.148438 C 48.171875 52.148438 48.191406 52.164062 48.207031 52.1875 Z M 48.636719 52.5 C 48.660156 52.523438 48.675781 52.546875 48.667969 52.546875 C 48.660156 52.546875 48.636719 52.523438 48.613281 52.5 C 48.589844 52.472656 48.574219 52.453125 48.582031 52.453125 C 48.589844 52.453125 48.613281 52.472656 48.636719 52.5 Z M 48.601562 52.535156 C 48.632812 52.566406 48.652344 52.59375 48.644531 52.59375 C 48.640625 52.59375 48.609375 52.566406 48.578125 52.535156 C 48.546875 52.5 48.527344 52.476562 48.535156 52.476562 C 48.539062 52.476562 48.570312 52.5 48.601562 52.535156 Z M 48.601562 52.535156 "/>
<path style=" stroke:none;fill-rule:nonzero;fill:rgb(0%,0%,0%);fill-opacity:1;" d="M 61.140625 44.5625 C 61.027344 44.695312 59.71875 46.300781 59.625 46.421875 C 59.589844 46.460938 59.355469 46.753906 59.097656 47.070312 C 58.835938 47.386719 58.5625 47.726562 58.484375 47.824219 C 58.136719 48.25 57.507812 49.019531 57.195312 49.40625 C 57.003906 49.636719 56.820312 49.867188 56.78125 49.914062 C 56.742188 49.964844 56.601562 50.136719 56.464844 50.300781 C 56.328125 50.46875 56.140625 50.703125 56.042969 50.820312 C 55.945312 50.9375 55.824219 51.085938 55.773438 51.148438 C 55.722656 51.214844 55.46875 51.523438 55.210938 51.839844 C 54.953125 52.160156 54.484375 52.730469 54.171875 53.121094 C 53.855469 53.503906 53.570312 53.855469 53.539062 53.894531 C 53.476562 53.972656 53.285156 54.207031 52.171875 55.578125 C 51.796875 56.035156 51.378906 56.546875 51.242188 56.71875 C 51.105469 56.882812 50.886719 57.152344 50.757812 57.308594 C 50.628906 57.46875 50.527344 57.597656 50.53125 57.597656 C 50.539062 57.597656 50.859375 57.410156 51.242188 57.179688 C 51.621094 56.949219 52.410156 56.476562 52.988281 56.128906 C 53.570312 55.785156 54.25 55.375 54.5 55.226562 C 54.75 55.074219 55.507812 54.617188 56.183594 54.214844 C 56.859375 53.808594 57.617188 53.355469 57.867188 53.203125 C 58.117188 53.050781 58.980469 52.535156 59.777344 52.058594 L 61.234375 51.183594 L 61.507812 51.34375 C 61.664062 51.433594 62.496094 51.917969 63.355469 52.417969 C 64.21875 52.917969 65.097656 53.429688 65.308594 53.550781 C 65.523438 53.675781 65.828125 53.851562 65.988281 53.945312 C 66.515625 54.25 67.636719 54.898438 67.789062 54.988281 C 67.875 55.039062 68.066406 55.152344 68.222656 55.242188 C 68.378906 55.332031 68.539062 55.429688 68.585938 55.453125 C 68.691406 55.515625 69.015625 55.703125 71.007812 56.863281 C 71.058594 56.890625 71.109375 56.917969 71.117188 56.917969 C 71.125 56.917969 70.964844 56.699219 70.753906 56.4375 C 70.546875 56.175781 70.140625 55.660156 69.847656 55.292969 C 69.5625 54.925781 69.160156 54.417969 68.960938 54.167969 C 68.761719 53.917969 68.476562 53.554688 68.332031 53.367188 C 68.019531 52.976562 67.882812 52.800781 67.320312 52.085938 C 67.09375 51.804688 66.648438 51.238281 66.328125 50.832031 C 66.007812 50.425781 65.605469 49.917969 65.4375 49.703125 C 65.269531 49.488281 65.011719 49.160156 64.863281 48.972656 C 64.34375 48.324219 62.417969 45.882812 62.136719 45.519531 C 61.421875 44.609375 61.292969 44.453125 61.269531 44.445312 C 61.253906 44.441406 61.195312 44.492188 61.140625 44.5625 Z M 61.140625 44.5625 "/>
<path style=" stroke:none;fill-rule:nonzero;fill:rgb(0%,0%,0%);fill-opacity:1;" d="M 41.832031 49.535156 C 41.71875 49.664062 41.613281 49.785156 41.597656 49.800781 C 41.570312 49.832031 41.011719 50.46875 40.796875 50.714844 C 40.550781 50.996094 39.496094 52.199219 39.160156 52.582031 C 38.964844 52.800781 38.691406 53.113281 38.550781 53.273438 C 38.410156 53.4375 38.265625 53.605469 38.222656 53.652344 C 38.183594 53.695312 38.058594 53.832031 37.953125 53.957031 C 37.84375 54.078125 37.683594 54.265625 37.59375 54.363281 C 37.503906 54.46875 37.304688 54.691406 37.160156 54.859375 C 36.875 55.1875 36.226562 55.921875 36.1875 55.96875 C 36.175781 55.980469 35.988281 56.199219 35.765625 56.445312 C 35.550781 56.699219 35.199219 57.09375 34.996094 57.328125 C 34.589844 57.789062 32.921875 59.6875 32.46875 60.207031 C 32.3125 60.382812 31.996094 60.746094 31.765625 61.007812 C 31.535156 61.273438 30.800781 62.109375 30.128906 62.875 C 29.460938 63.636719 28.828125 64.355469 28.726562 64.472656 C 28.621094 64.589844 28.316406 64.9375 28.042969 65.246094 C 27.777344 65.554688 27.386719 66 27.179688 66.230469 C 26.773438 66.695312 26.398438 67.125 25.695312 67.925781 C 25.449219 68.210938 25.171875 68.523438 25.085938 68.621094 C 25 68.714844 24.808594 68.933594 24.660156 69.101562 C 24.515625 69.269531 24.121094 69.71875 23.785156 70.097656 C 23.453125 70.480469 23.140625 70.832031 23.097656 70.886719 C 23.050781 70.9375 22.785156 71.242188 22.507812 71.558594 C 22.101562 72.023438 21.484375 72.722656 20.5 73.847656 C 20.46875 73.886719 20.492188 73.871094 20.558594 73.8125 C 20.621094 73.753906 20.769531 73.628906 20.886719 73.527344 C 21 73.433594 21.347656 73.136719 21.65625 72.871094 C 21.964844 72.605469 22.292969 72.324219 22.382812 72.25 C 22.476562 72.171875 23.039062 71.691406 23.632812 71.179688 C 24.230469 70.671875 24.792969 70.191406 24.886719 70.113281 C 24.976562 70.035156 25.199219 69.84375 25.378906 69.6875 C 25.75 69.371094 25.925781 69.21875 26.710938 68.546875 C 27.019531 68.28125 27.347656 68 27.4375 67.925781 C 27.53125 67.847656 28.089844 67.367188 28.6875 66.859375 C 29.285156 66.347656 29.847656 65.867188 29.941406 65.789062 C 30.03125 65.710938 30.253906 65.519531 30.433594 65.367188 C 30.804688 65.046875 30.980469 64.894531 31.765625 64.222656 C 32.074219 63.957031 32.402344 63.679688 32.492188 63.601562 C 32.8125 63.332031 35.164062 61.320312 35.734375 60.828125 C 36.050781 60.558594 36.574219 60.109375 36.902344 59.832031 C 37.226562 59.554688 37.621094 59.214844 37.777344 59.082031 C 37.933594 58.949219 38.085938 58.816406 38.117188 58.789062 C 38.152344 58.757812 38.53125 58.4375 38.960938 58.070312 C 39.390625 57.703125 40.03125 57.15625 40.375 56.859375 C 41.929688 55.523438 42.011719 55.457031 42.046875 55.46875 C 42.085938 55.480469 42.460938 55.578125 44.308594 56.046875 C 44.824219 56.179688 45.824219 56.433594 46.53125 56.613281 C 47.238281 56.792969 48.417969 57.09375 49.152344 57.28125 L 50.484375 57.621094 L 49.804688 56.945312 C 49.433594 56.574219 48.550781 55.703125 47.851562 55.011719 C 47.152344 54.324219 46.257812 53.4375 45.863281 53.050781 C 41.78125 49.015625 42.074219 49.304688 42.050781 49.304688 C 42.039062 49.304688 41.941406 49.410156 41.832031 49.535156 Z M 41.832031 49.535156 "/>
</g>
</svg>
